{
	"asset":{
		"generator":"Khronos glTF Blender I/O v5.1.19",
		"version":"2.0"
	},
	"extensionsUsed":[
		"KHR_materials_transmission",
		"KHR_materials_ior"
	],
	"scene":0,
	"scenes":[
		{
			"name":"Scene",
			"nodes":[
				0
			]
		}
	],
	"nodes":[
		{
			"mesh":0,
			"name":"Plane"
		}
	],
	"materials":[
		{
			"doubleSided":true,
			"extensions":{
				"KHR_materials_transmission":{
					"transmissionFactor":0.5
				},
				"KHR_materials_ior":{
					"ior":1
				}
			},
			"name":"Material.002",
			"pbrMetallicRoughness":{
				"baseColorTexture":{
					"index":0
				},
				"metallicFactor":0.5272727012634277,
				"roughnessFactor":0.24090908467769623
			}
		}
	],
	"meshes":[
		{
			"name":"Plane",
			"primitives":[
				{
					"attributes":{
						"POSITION":0,
						"NORMAL":1,
						"TEXCOORD_0":2,
						"COLOR_0":3,
						"COLOR_1":4
					},
					"indices":5,
					"material":0
				}
			]
		}
	],
	"textures":[
		{
			"sampler":0,
			"source":0
		}
	],
	"images":[
		{
			"mimeType":"image/png",
			"name":"ocean",
			"uri":"ocean.png"
		}
	],
	"accessors":[
		{
			"bufferView":0,
			"componentType":5126,
			"count":263169,
			"max":[
				76.17445373535156,
				2.5614469051361084,
				25.825925827026367
			],
			"min":[
				-26.174449920654297,
				-1.7766025066375732,
				-75.825927734375
			],
			"type":"VEC3"
		},
		{
			"bufferView":1,
			"componentType":5126,
			"count":263169,
			"type":"VEC3"
		},
		{
			"bufferView":2,
			"componentType":5126,
			"count":263169,
			"type":"VEC2"
		},
		{
			"bufferView":3,
			"componentType":5121,
			"count":263169,
			"normalized":true,
			"type":"VEC4"
		},
		{
			"bufferView":4,
			"componentType":5123,
			"count":263169,
			"normalized":true,
			"type":"VEC4"
		},
		{
			"bufferView":5,
			"componentType":5125,
			"count":1572864,
			"type":"SCALAR"
		}
	],
	"bufferViews":[
		{
			"buffer":0,
			"byteLength":3158028,
			"byteOffset":0,
			"target":34962
		},
		{
			"buffer":0,
			"byteLength":3158028,
			"byteOffset":3158028,
			"target":34962
		},
		{
			"buffer":0,
			"byteLength":2105352,
			"byteOffset":6316056,
			"target":34962
		},
		{
			"buffer":0,
			"byteLength":1052676,
			"byteOffset":8421408,
			"target":34962
		},
		{
			"buffer":0,
			"byteLength":2105352,
			"byteOffset":9474084,
			"target":34962
		},
		{
			"buffer":0,
			"byteLength":6291456,
			"byteOffset":11579436,
			"target":34963
		}
	],
	"samplers":[
		{
			"magFilter":9729,
			"minFilter":9987
		}
	],
	"buffers":[
		{
			"byteLength":17870892,
			"uri":"morze1.bin"
		}
	]
}
